<svg xmlns="http://www.w3.org/2000/svg" width="1em" height="1em" viewBox="0 0 24 24"><path fill="currentColor" d="M18.002 21.5q-1.04 0-1.771-.73q-.731-.728-.731-1.77q0-.2.034-.413q.035-.214.104-.403l-7.742-4.561q-.367.414-.854.645T6 14.5q-1.042 0-1.77-.728q-.73-.729-.73-1.77t.73-1.771T6 9.5q.556 0 1.042.232t.854.645l7.743-4.562q-.07-.188-.104-.402Q15.5 5.2 15.5 5q0-1.042.729-1.77q.728-.73 1.769-.73t1.771.729t.731 1.769t-.73 1.771Q19.043 7.5 18 7.5q-.556 0-1.042-.232t-.854-.645l-7.742 4.562q.069.188.103.4q.035.213.035.411t-.035.415t-.104.405l7.743 4.561q.367-.413.854-.645T18 16.5q1.042 0 1.77.729q.73.728.73 1.769t-.728 1.771t-1.77.731"/></svg>