<svg width="24" height="23" fill="none" xmlns="http://www.w3.org/2000/svg"><path d="M17.41 0H7.22a6.249 6.249 0 0 0-4.436 1.862 6.391 6.391 0 0 0-1.84 4.485v10.306a6.39 6.39 0 0 0 1.84 4.486A6.248 6.248 0 0 0 7.22 23h10.19a6.249 6.249 0 0 0 4.436-1.86 6.392 6.392 0 0 0 1.84-4.486V6.347a6.392 6.392 0 0 0-1.84-4.485A6.249 6.249 0 0 0 17.411 0zm4.26 16.654a4.336 4.336 0 0 1-1.25 3.044 4.24 4.24 0 0 1-3.01 1.262H7.22a4.24 4.24 0 0 1-3.01-1.262 4.336 4.336 0 0 1-1.248-3.044V6.347A4.337 4.337 0 0 1 4.21 3.304a4.24 4.24 0 0 1 3.01-1.263h10.19a4.24 4.24 0 0 1 3.01 1.263 4.337 4.337 0 0 1 1.25 3.043v10.306z" fill="#454545"/><path d="M12.316 5.575c-1.16 0-2.292.347-3.256.998a5.913 5.913 0 0 0-2.16 2.66 5.99 5.99 0 0 0-.334 3.423 5.948 5.948 0 0 0 1.603 3.035 5.841 5.841 0 0 0 3 1.623 5.8 5.8 0 0 0 3.387-.335 5.876 5.876 0 0 0 2.63-2.182 5.975 5.975 0 0 0-.727-7.483 5.834 5.834 0 0 0-4.143-1.74zm0 9.812c-.76 0-1.503-.228-2.135-.655a3.877 3.877 0 0 1-1.416-1.745 3.927 3.927 0 0 1-.218-2.246A3.9 3.9 0 0 1 9.6 8.751 3.83 3.83 0 0 1 11.57 7.69a3.803 3.803 0 0 1 2.22.223 3.853 3.853 0 0 1 1.724 1.433 3.919 3.919 0 0 1-.482 4.904 3.825 3.825 0 0 1-2.715 1.138zM18.422 3.844c-.343 0-.676.12-.942.34a1.515 1.515 0 0 0-.368 1.867c.162.306.424.546.741.68.318.132.67.15.999.048.328-.1.612-.314.803-.602a1.514 1.514 0 0 0-.187-1.895 1.475 1.475 0 0 0-1.046-.438z" fill="#454545"/></svg>